<svg width="681" height="1013" viewBox="0 0 681 1013" fill="none" xmlns="http://www.w3.org/2000/svg">
<path opacity="0.1" d="M-141.489 651.276L-158.354 579.92L-158.923 577.546L-159.285 575.916L-160.005 572.947L-162.806 561.093L-192.873 433.955L-202.741 392.396L-246.466 207.377C-121.237 175.476 1.37268 195.13 81.2747 258.118C84.7199 260.808 88.0676 263.579 91.3178 266.432C175.185 258.061 254.178 273.032 315.593 308.674L433.464 557.987C429.568 582.062 422.393 606.398 412.071 630.545C410.025 635.41 407.84 640.224 405.516 644.987C404.617 646.854 403.704 648.704 402.778 650.538C405.414 651.147 408.031 651.788 410.631 652.461C416.718 654.027 422.718 655.743 428.632 657.609C452.421 665.121 474.472 674.942 494.415 686.906L609.547 930.427C607.233 945.965 603.557 961.635 598.545 977.316C568.533 1071.43 491.247 1162.12 381.72 1221.1L310.378 1113.67L290.312 1083.47L229.729 992.255L179.95 917.306L210.428 1041.83L229.158 1118.23L236.573 1148.57L265.602 1267.1C233.863 1275.45 201.958 1280.61 170.676 1282.45L118.884 1204.21L76.1597 1139.63L33.2957 1074.82L-39.8192 964.167L-40.8405 962.662L-259.296 632.472L-269.172 617.719L-366.911 470.012L-464.515 322.488C-428.539 290.492 -386.819 263.07 -341.688 241.755C-339.876 240.899 -338.104 240.061 -336.359 239.236L-141.489 651.276Z" fill="#4CD647"/>
</svg>
