<?xml version="1.0" standalone="no"?>
<!DOCTYPE svg PUBLIC "-//W3C//DTD SVG 20010904//EN"
 "http://www.w3.org/TR/2001/REC-SVG-20010904/DTD/svg10.dtd">
<svg version="1.0" xmlns="http://www.w3.org/2000/svg"
 width="300.000000pt" height="300.000000pt" viewBox="0 0 300.000000 300.000000"
 preserveAspectRatio="xMidYMid meet">
<metadata>
Created by potrace 1.11, written by Peter Selinger 2001-2013
</metadata>
<g transform="translate(0.000000,300.000000) scale(0.100000,-0.100000)"
fill="#000000" stroke="none">
<path d="M1070 2133 c-165 -12 -429 -70 -463 -101 -72 -65 -58 -171 29 -213
l45 -21 77 21 c152 40 253 53 474 58 408 10 724 -49 1000 -188 114 -57 162
-65 206 -32 39 28 65 86 58 127 -11 57 -42 84 -170 145 -298 144 -641 213
-1036 209 -96 -1 -195 -3 -220 -5z"/>
<path d="M1015 1659 c-114 -15 -288 -58 -315 -77 -60 -44 -63 -121 -8 -167 37
-31 64 -31 218 4 370 83 819 27 1156 -144 126 -64 159 -68 206 -26 27 24 33
36 33 70 0 63 -28 89 -161 156 -267 135 -546 196 -882 194 -97 -1 -208 -6
-247 -10z"/>
<path d="M1115 1223 c-245 -29 -349 -50 -380 -79 -51 -48 -17 -144 52 -144 15
0 73 9 129 20 370 72 712 37 991 -100 68 -33 136 -60 152 -60 42 0 85 52 77
94 -9 46 -32 64 -151 121 -170 82 -300 120 -495 144 -78 10 -306 13 -375 4z"/>
</g>
</svg>
